<?xml version="1.0" encoding="UTF-8" standalone="no"?>
<!DOCTYPE svg PUBLIC "-//W3C//DTD SVG 1.1//EN"
 "http://www.w3.org/Graphics/SVG/1.1/DTD/svg11.dtd">
<!-- Generated by graphviz version 11.0.0 (20240428.1522)
 -->
<!-- Pages: 1 -->
<svg width="396pt" height="332pt"
 viewBox="0.00 0.00 396.22 332.00" xmlns="http://www.w3.org/2000/svg" xmlns:xlink="http://www.w3.org/1999/xlink">
<g id="graph0" class="graph" transform="scale(1 1) rotate(0) translate(4 328)">
<polygon fill="white" stroke="none" points="-4,4 -4,-328 392.22,-328 392.22,4 -4,4"/>
<!-- 0 -->
<g id="node1" class="node">
<title>0</title>
<ellipse fill="none" stroke="black" cx="192.11" cy="-306" rx="27" ry="18"/>
<text text-anchor="middle" x="192.11" y="-300.57" font-family="Times New Roman,serif" font-size="14.00">+</text>
</g>
<!-- 0_0 -->
<g id="node2" class="node">
<title>0_0</title>
<ellipse fill="none" stroke="black" cx="64.11" cy="-234" rx="27" ry="18"/>
<text text-anchor="middle" x="64.11" y="-228.57" font-family="Times New Roman,serif" font-size="14.00">*6</text>
</g>
<!-- 0&#45;&gt;0_0 -->
<g id="edge5" class="edge">
<title>0&#45;&gt;0_0</title>
<path fill="none" stroke="black" d="M171.54,-293.75C150.74,-282.37 118.33,-264.65 94.55,-251.65"/>
<polygon fill="black" stroke="black" points="96.41,-248.67 85.95,-246.95 93.05,-254.81 96.41,-248.67"/>
</g>
<!-- 0_1 -->
<g id="node7" class="node">
<title>0_1</title>
<ellipse fill="none" stroke="black" cx="136.11" cy="-234" rx="27" ry="18"/>
<text text-anchor="middle" x="136.11" y="-228.57" font-family="Times New Roman,serif" font-size="14.00">*5</text>
</g>
<!-- 0&#45;&gt;0_1 -->
<g id="edge7" class="edge">
<title>0&#45;&gt;0_1</title>
<path fill="none" stroke="black" d="M179.96,-289.81C172.77,-280.82 163.5,-269.23 155.33,-259.03"/>
<polygon fill="black" stroke="black" points="158.16,-256.96 149.18,-251.34 152.7,-261.34 158.16,-256.96"/>
</g>
<!-- 0_2 -->
<g id="node9" class="node">
<title>0_2</title>
<ellipse fill="none" stroke="black" cx="248.11" cy="-234" rx="67.03" ry="18"/>
<text text-anchor="middle" x="248.11" y="-228.57" font-family="Times New Roman,serif" font-size="14.00">0.0 =&gt; 1.5 [20]</text>
</g>
<!-- 0&#45;&gt;0_2 -->
<g id="edge8" class="edge">
<title>0&#45;&gt;0_2</title>
<path fill="none" stroke="black" d="M204.26,-289.81C211.09,-281.28 219.79,-270.4 227.63,-260.6"/>
<polygon fill="black" stroke="black" points="230.35,-262.8 233.86,-252.81 224.88,-258.43 230.35,-262.8"/>
</g>
<!-- 0_3 -->
<g id="node10" class="node">
<title>0_3</title>
<ellipse fill="none" stroke="black" cx="360.11" cy="-234" rx="27" ry="18"/>
<text text-anchor="middle" x="360.11" y="-228.57" font-family="Times New Roman,serif" font-size="14.00">*15</text>
</g>
<!-- 0&#45;&gt;0_3 -->
<g id="edge10" class="edge">
<title>0&#45;&gt;0_3</title>
<path fill="none" stroke="black" d="M215.17,-296.22C241.66,-286.02 286.31,-268.5 324.11,-252 325.61,-251.34 327.15,-250.66 328.7,-249.97"/>
<polygon fill="black" stroke="black" points="329.89,-253.27 337.51,-245.91 326.96,-246.91 329.89,-253.27"/>
</g>
<!-- 0_0_0 -->
<g id="node3" class="node">
<title>0_0_0</title>
<ellipse fill="none" stroke="black" cx="64.11" cy="-162" rx="27" ry="18"/>
<text text-anchor="middle" x="64.11" y="-156.57" font-family="Times New Roman,serif" font-size="14.00">+</text>
</g>
<!-- 0_0&#45;&gt;0_0_0 -->
<g id="edge4" class="edge">
<title>0_0&#45;&gt;0_0_0</title>
<path fill="none" stroke="black" d="M64.11,-215.7C64.11,-208.41 64.11,-199.73 64.11,-191.54"/>
<polygon fill="black" stroke="black" points="67.61,-191.62 64.11,-181.62 60.61,-191.62 67.61,-191.62"/>
</g>
<!-- 0_0_0_0 -->
<g id="node4" class="node">
<title>0_0_0_0</title>
<ellipse fill="none" stroke="black" cx="28.11" cy="-90" rx="27" ry="18"/>
<text text-anchor="middle" x="28.11" y="-84.58" font-family="Times New Roman,serif" font-size="14.00">*2</text>
</g>
<!-- 0_0_0&#45;&gt;0_0_0_0 -->
<g id="edge2" class="edge">
<title>0_0_0&#45;&gt;0_0_0_0</title>
<path fill="none" stroke="black" d="M55.76,-144.76C51.53,-136.55 46.3,-126.37 41.53,-117.09"/>
<polygon fill="black" stroke="black" points="44.79,-115.79 37.11,-108.49 38.57,-118.99 44.79,-115.79"/>
</g>
<!-- 0_0_0_1 -->
<g id="node6" class="node">
<title>0_0_0_1</title>
<ellipse fill="none" stroke="black" cx="101.11" cy="-90" rx="28.11" ry="18"/>
<text text-anchor="middle" x="101.11" y="-84.58" font-family="Times New Roman,serif" font-size="14.00">[1.0]</text>
</g>
<!-- 0_0_0&#45;&gt;0_0_0_1 -->
<g id="edge3" class="edge">
<title>0_0_0&#45;&gt;0_0_0_1</title>
<path fill="none" stroke="black" d="M72.69,-144.76C77.03,-136.55 82.41,-126.37 87.32,-117.09"/>
<polygon fill="black" stroke="black" points="90.29,-118.96 91.87,-108.49 84.1,-115.69 90.29,-118.96"/>
</g>
<!-- 0_0_0_0_0 -->
<g id="node5" class="node">
<title>0_0_0_0_0</title>
<ellipse fill="none" stroke="black" cx="28.11" cy="-18" rx="28.11" ry="18"/>
<text text-anchor="middle" x="28.11" y="-12.57" font-family="Times New Roman,serif" font-size="14.00">[0.0]</text>
</g>
<!-- 0_0_0_0&#45;&gt;0_0_0_0_0 -->
<g id="edge1" class="edge">
<title>0_0_0_0&#45;&gt;0_0_0_0_0</title>
<path fill="none" stroke="black" d="M28.11,-71.7C28.11,-64.41 28.11,-55.73 28.11,-47.54"/>
<polygon fill="black" stroke="black" points="31.61,-47.62 28.11,-37.62 24.61,-47.62 31.61,-47.62"/>
</g>
<!-- 0_1_0 -->
<g id="node8" class="node">
<title>0_1_0</title>
<ellipse fill="none" stroke="black" cx="137.11" cy="-162" rx="28.11" ry="18"/>
<text text-anchor="middle" x="137.11" y="-156.57" font-family="Times New Roman,serif" font-size="14.00">[0.0]</text>
</g>
<!-- 0_1&#45;&gt;0_1_0 -->
<g id="edge6" class="edge">
<title>0_1&#45;&gt;0_1_0</title>
<path fill="none" stroke="black" d="M136.36,-215.7C136.46,-208.41 136.59,-199.73 136.7,-191.54"/>
<polygon fill="black" stroke="black" points="140.2,-191.67 136.84,-181.62 133.2,-191.57 140.2,-191.67"/>
</g>
<!-- 0_3_0 -->
<g id="node11" class="node">
<title>0_3_0</title>
<ellipse fill="none" stroke="black" cx="360.11" cy="-162" rx="28.11" ry="18"/>
<text text-anchor="middle" x="360.11" y="-156.57" font-family="Times New Roman,serif" font-size="14.00">[1.5]</text>
</g>
<!-- 0_3&#45;&gt;0_3_0 -->
<g id="edge9" class="edge">
<title>0_3&#45;&gt;0_3_0</title>
<path fill="none" stroke="black" d="M360.11,-215.7C360.11,-208.41 360.11,-199.73 360.11,-191.54"/>
<polygon fill="black" stroke="black" points="363.61,-191.62 360.11,-181.62 356.61,-191.62 363.61,-191.62"/>
</g>
</g>
</svg>
