<?xml version="1.0" encoding="UTF-8" standalone="no"?>
<!-- Created with Inkscape (http://www.inkscape.org/) -->

<svg
   width="83.099998mm"
   height="83.11084mm"
   viewBox="0 0 83.099999 83.11084"
   version="1.1"
   id="svg5"
   inkscape:version="1.1.1 (3bf5ae0d25, 2021-09-20)"
   sodipodi:docname="logo.svg"
   xmlns:inkscape="http://www.inkscape.org/namespaces/inkscape"
   xmlns:sodipodi="http://sodipodi.sourceforge.net/DTD/sodipodi-0.dtd"
   xmlns="http://www.w3.org/2000/svg"
   xmlns:svg="http://www.w3.org/2000/svg">
  <sodipodi:namedview
     id="namedview7"
     pagecolor="#ffffff"
     bordercolor="#999999"
     borderopacity="1"
     inkscape:pageshadow="0"
     inkscape:pageopacity="0"
     inkscape:pagecheckerboard="0"
     inkscape:document-units="mm"
     showgrid="false"
     inkscape:zoom="0.71745375"
     inkscape:cx="-87.810538"
     inkscape:cy="279.46052"
     inkscape:window-width="1920"
     inkscape:window-height="1017"
     inkscape:window-x="1912"
     inkscape:window-y="-8"
     inkscape:window-maximized="1"
     inkscape:current-layer="layer1"
     inkscape:snap-bbox="true"
     inkscape:snap-intersection-paths="true"
     inkscape:object-paths="true"
     inkscape:snap-global="false"
     fit-margin-top="5"
     fit-margin-left="5"
     fit-margin-right="5"
     fit-margin-bottom="5"
     lock-margins="true" />
  <defs
     id="defs2" />
  <g
     inkscape:label="Layer 1"
     inkscape:groupmode="layer"
     id="layer1"
     transform="translate(-44.748829,-52.204603)">
    <path
       style="fill:none;stroke:#da1011;stroke-width:2.5;stroke-linecap:round;stroke-linejoin:bevel;stroke-miterlimit:4;stroke-dasharray:none;stroke-opacity:1"
       id="path7814"
       sodipodi:type="arc"
       sodipodi:cx="67.425644"
       sodipodi:cy="78.975876"
       sodipodi:rx="5"
       sodipodi:ry="3.5"
       sodipodi:start="2.6179939"
       sodipodi:end="0.52359878"
       sodipodi:open="true"
       sodipodi:arc-type="arc"
       d="m 63.095517,80.725876 a 5,3.5 0 0 1 1.116189,-4.431156 5,3.5 0 0 1 6.427876,0 5,3.5 0 0 1 1.116189,4.431156" />
    <path
       style="fill:none;stroke:#da1011;stroke-width:2.5;stroke-linecap:round;stroke-linejoin:bevel;stroke-miterlimit:4;stroke-dasharray:none;stroke-opacity:1"
       id="path7814-7"
       sodipodi:type="arc"
       sodipodi:cx="103.12349"
       sodipodi:cy="61.98399"
       sodipodi:rx="5"
       sodipodi:ry="3.5"
       sodipodi:start="2.6179939"
       sodipodi:end="0.52359878"
       sodipodi:open="true"
       sodipodi:arc-type="arc"
       d="m 98.793362,63.73399 a 5,3.5 0 0 1 1.116189,-4.431156 5,3.5 0 0 1 6.427879,0 5,3.5 0 0 1 1.11619,4.431156" />
    <path
       id="path1287"
       style="fill:none;stroke:#588023;stroke-width:2.5;stroke-linecap:round;stroke-linejoin:bevel;stroke-miterlimit:4;stroke-dasharray:none;stroke-opacity:1"
       d="M 80.288329,129.06544 V 66.244987 c 0,-2.761424 2.238576,-5 5,-5 2.761424,0 5,2.238576 5,5 v 62.720783"
       sodipodi:nodetypes="cssc" />
    <path
       id="path2384-9"
       style="fill:none;stroke:#588023;stroke-width:2.5;stroke-linecap:round;stroke-linejoin:bevel;stroke-miterlimit:4;stroke-dasharray:none;stroke-opacity:1"
       d="M 63.493453,104.74732 V 83.967285 c 0,-2.209139 1.790861,-4 4,-4 2.209139,0 4,1.790861 4,4 V 102.5547 m -8,2.19262 c 0,2.20914 1.790861,4 4,4 h 12.794876"
       sodipodi:nodetypes="csssccsc" />
    <path
       id="path3706"
       style="fill:none;stroke:#588023;stroke-width:2.5;stroke-linecap:round;stroke-linejoin:bevel;stroke-miterlimit:4;stroke-dasharray:none;stroke-opacity:1"
       d="M 107.08321,87.804367 V 67.024332 c 0,-2.209139 -1.79086,-4 -4,-4 -2.20914,0 -4.000004,1.790861 -4.000004,4 v 18.587415 m 8.000004,2.19262 c 0,2.20914 -1.79086,4 -4,4 H 90.288329"
       sodipodi:nodetypes="csssccsc" />
  </g>
</svg>
